<?xml version="1.0" encoding="UTF-8"?> <svg xmlns="http://www.w3.org/2000/svg" width="134" height="20" viewBox="0 0 134 20" fill="none"><path d="M41.2838 8.13215H29.8883V2.13354H26.2591V17.9167H29.8883V11.6047H41.2838V17.9167H44.9193V2.13354H41.2838V8.13215Z" fill="#FFB928"></path><path d="M18.0227 12.99L14.2931 7.5304H11.3283L7.60505 12.99L4.57129 2.13354H0.81665L5.26705 17.9167H8.42617L12.8139 11.4793L17.2016 17.9167H20.3545L24.8111 2.13354H21.0502L18.0227 12.99Z" fill="#FFB928"></path><path d="M128.887 2.13354V8.13215H117.492V2.13354H113.863V17.9167H117.492V11.6047H128.887V17.9167H132.517V2.13354H128.887Z" fill="#FFB928"></path><path d="M84.9728 2.13354H74.7808C71.7783 2.13354 70.2051 3.5188 70.2051 6.36454V13.6857C70.2051 16.5252 71.7783 17.9167 74.7808 17.9167H84.9728C87.9752 17.9167 89.5548 16.5252 89.5548 13.6857V6.36454C89.5548 3.5188 87.9752 2.13354 84.9728 2.13354ZM85.9193 14.4442H73.8594V5.6061H85.9444L85.9193 14.4442Z" fill="#FFB928"></path><path d="M106.598 8.16335H95.9418V5.46179H110.559V2.08325H96.5749C93.6038 2.08325 92.3125 3.2178 92.3125 5.99458V7.6055C92.3125 10.445 93.5662 11.5544 96.5749 11.5544H107.231V14.5192H92.6134V17.8978H106.598C109.6 17.8978 110.86 16.7946 110.86 13.9488V12.0684C110.86 9.22894 109.606 8.15707 106.598 8.15707" fill="#FFB928"></path><path d="M62.7834 2.13354H52.5852C49.589 2.13354 48.0094 3.5188 48.0094 6.36454V13.6857C48.0094 16.5252 49.589 17.9167 52.5852 17.9167H62.7834C65.7795 17.9167 67.3591 16.5252 67.3591 13.6857V6.36454C67.3591 3.5188 65.7795 2.13354 62.7834 2.13354ZM63.7298 14.4442H51.6387V5.6061H63.7298V14.4442Z" fill="#FFB928"></path></svg> 